<svg width="16" height="23" viewBox="0 0 16 23" fill="none" xmlns="http://www.w3.org/2000/svg">
<path fill-rule="evenodd" clip-rule="evenodd" d="M7.79077 0.0103281C7.13928 0.0638647 6.5156 0.318622 5.97589 0.751669C5.82224 0.874951 5.53205 1.16553 5.41163 1.31667C4.95264 1.89279 4.65236 2.55522 4.51125 3.30291C4.47343 3.50331 4.44944 3.69492 4.44075 3.86601L4.43371 4.00466H2.71843C0.825726 4.00466 0.937527 4.00043 0.840076 4.0757C0.76907 4.13053 0.728072 4.21226 0.721218 4.31264C0.718118 4.35802 0.824745 6.82213 0.958167 9.78843C1.2222 15.6582 1.20409 15.3373 1.28554 15.5903C1.43701 16.0607 1.79119 16.4205 2.22777 16.5474C2.42724 16.6053 2.08628 16.6021 7.98804 16.6021C13.9041 16.602 13.5548 16.6055 13.7709 16.5456C13.8902 16.5125 14.1098 16.4019 14.2222 16.3182C14.5391 16.0824 14.7518 15.7241 14.8129 15.3232C14.8229 15.2577 14.934 13.0797 15.097 9.75215C15.3625 4.33332 15.3646 4.28812 15.3446 4.22455C15.3203 4.14722 15.2563 4.07318 15.1818 4.03635L15.1292 4.01032L13.3913 4.00732L11.6534 4.00431L11.6471 3.93375C11.6437 3.89494 11.6355 3.80206 11.6288 3.72736C11.5352 2.67694 11.0648 1.66356 10.351 0.974565C9.63077 0.279324 8.7149 -0.0656079 7.79077 0.0103281ZM8.41427 0.997926C8.73807 1.05953 9.02196 1.17411 9.29566 1.35367C9.90203 1.75148 10.3652 2.43913 10.559 3.22934C10.6147 3.45618 10.6423 3.63956 10.6642 3.92826L10.6701 4.00466H8.04224H5.41442L5.42166 3.86601C5.43481 3.61411 5.49228 3.29446 5.56944 3.04397C5.75554 2.43992 6.07417 1.93523 6.50353 1.56445C6.86522 1.25212 7.26605 1.06334 7.72739 0.988034C7.85786 0.966744 8.28248 0.972856 8.41427 0.997926ZM8.42497 6.09233C9.0643 6.17514 9.61954 6.36615 10.1592 6.68892C10.2961 6.77083 10.3615 6.82708 10.3729 6.87291C10.383 6.91325 10.355 6.97299 10.242 7.15164C10.1969 7.22299 10.1431 7.30939 10.1223 7.34363C10.0423 7.47569 10.0165 7.47661 9.81983 7.35442C9.27414 7.01538 8.7157 6.84214 8.05004 6.80542C7.81925 6.79269 7.54435 6.83129 7.31169 6.90912C6.89099 7.04984 6.55517 7.34514 6.41402 7.69847C6.33615 7.8934 6.31046 8.05836 6.33034 8.23569C6.39019 8.76988 6.78289 9.16482 7.57661 9.4891C7.66266 9.52427 7.85003 9.59262 7.993 9.64102C8.4799 9.80583 8.82014 9.94156 9.14348 10.1C10.0753 10.5565 10.5612 11.0671 10.705 11.7409C10.74 11.9052 10.7481 12.2316 10.7221 12.4373C10.6273 13.1882 10.2073 13.789 9.54365 14.1232C9.26412 14.2639 8.95092 14.3553 8.54603 14.4141C8.36395 14.4405 7.93733 14.4403 7.69675 14.4136C7.01293 14.3379 6.33841 14.1187 5.86317 13.8177C5.59752 13.6495 5.24951 13.3901 5.2336 13.3484C5.21732 13.3058 5.23276 13.2754 5.39051 13.0393C5.57125 12.7688 5.60357 12.7312 5.65555 12.7312C5.70005 12.7312 5.72408 12.7447 5.80988 12.8176C5.98618 12.9675 6.30495 13.1717 6.55079 13.2922C7.08442 13.5538 7.68194 13.6895 8.16114 13.6581C8.76307 13.6186 9.2518 13.4292 9.56992 13.1121C9.74243 12.9402 9.85039 12.7572 9.91234 12.5317C9.94026 12.4301 9.94302 12.4026 9.94279 12.2276C9.94252 12.0168 9.93058 11.9518 9.85926 11.773C9.71496 11.4111 9.3641 11.0791 8.85595 10.8236C8.6548 10.7225 8.50182 10.6613 8.19139 10.5578C7.75923 10.4137 7.12872 10.1668 6.82455 10.0226C6.52845 9.88225 6.18664 9.62552 5.98086 9.38893C5.64228 8.99967 5.48997 8.57298 5.51176 8.07476C5.53827 7.46829 5.84506 6.92116 6.37043 6.5434C6.72268 6.29011 7.16981 6.12735 7.65513 6.07576C7.79006 6.06141 8.26527 6.07164 8.42497 6.09233ZM1.04979 17.962C0.586015 18.0208 0.21906 18.3127 0.112749 18.7074C0.0856833 18.8079 0.0855819 19.0258 0.112546 19.1243C0.155573 19.2814 0.233669 19.4128 0.355875 19.5337C0.540564 19.7163 0.753525 19.8224 1.30109 20.0043C1.75233 20.1542 1.95539 20.2912 2.06321 20.5184C2.09587 20.5872 2.0981 20.6001 2.09758 20.7165C2.09695 20.8603 2.07701 20.9259 2.0022 21.0308C1.85644 21.2352 1.49715 21.3652 1.17028 21.3318C0.873815 21.3015 0.611581 21.1949 0.294654 20.976C0.200799 20.9112 0.198668 20.9125 0.0594408 21.1202C0.0115325 21.1916 -0.00433926 21.2245 0.000981385 21.2413C0.00944707 21.2681 0.113301 21.3533 0.226894 21.4267C0.59899 21.667 1.11539 21.7853 1.52324 21.7236C1.90759 21.6655 2.17949 21.5137 2.35073 21.2617C2.40152 21.187 2.46921 21.0374 2.49243 20.9485C2.52082 20.8398 2.5275 20.602 2.50511 20.4962C2.48562 20.404 2.43032 20.2776 2.37249 20.1931C2.27843 20.0556 2.08312 19.9028 1.85342 19.7872C1.69568 19.7077 1.56319 19.6554 1.28651 19.5632C1.02677 19.4767 0.824497 19.3806 0.717994 19.2932C0.633225 19.2237 0.55612 19.1162 0.531648 19.0335C0.463888 18.8044 0.600737 18.5478 0.855959 18.4255C0.975606 18.3682 1.08189 18.3452 1.22808 18.3452C1.47787 18.3452 1.73173 18.4171 1.9712 18.5556C2.11021 18.636 2.11108 18.6361 2.15879 18.5855C2.2269 18.5133 2.31795 18.3691 2.31795 18.3334C2.31795 18.2901 2.25247 18.2404 2.08835 18.1588C1.87203 18.0514 1.63491 17.9866 1.3638 17.9608C1.22454 17.9475 1.16192 17.9477 1.04979 17.962ZM2.93311 17.9669C2.91716 17.9829 2.9154 18.1685 2.9154 19.8408C2.9154 21.0987 2.91916 21.7041 2.92706 21.7189C2.93787 21.7392 2.95236 21.7408 3.12296 21.7408C3.25964 21.7408 3.31029 21.737 3.31925 21.7262C3.32743 21.7163 3.33254 21.4949 3.33512 21.0386C3.33858 20.4258 3.34074 20.36 3.35933 20.3033C3.43773 20.0642 3.61356 19.8899 3.84538 19.8213C3.89022 19.8081 3.95101 19.8013 4.02574 19.8013C4.15627 19.8013 4.23478 19.8208 4.35183 19.8824C4.50513 19.963 4.62527 20.1057 4.68242 20.275L4.71298 20.3656L4.71881 21.0504L4.72464 21.7351L4.91927 21.7382L5.11389 21.7413L5.12584 21.7099C5.13397 21.6886 5.13637 21.4626 5.13335 21.0051L5.12891 20.3316L5.09898 20.2199C4.99141 19.8183 4.68786 19.5201 4.28246 19.4179C4.20294 19.3979 4.15154 19.393 4.02011 19.3931C3.8772 19.3933 3.84248 19.3972 3.74393 19.4243C3.61605 19.4595 3.47233 19.5255 3.39558 19.5844C3.36697 19.6063 3.34107 19.6242 3.33802 19.6242C3.33497 19.6242 3.33248 19.2526 3.33248 18.7984C3.33248 17.9935 3.33193 17.9722 3.31068 17.9608C3.29843 17.9542 3.21481 17.9491 3.11985 17.9491C2.98122 17.9491 2.94764 17.9523 2.93311 17.9669ZM6.50664 19.3757C6.18582 19.4263 5.90905 19.5894 5.7196 19.8393C5.65069 19.9302 5.56171 20.1115 5.53145 20.2227C5.36085 20.8496 5.73301 21.4861 6.37069 21.6579C6.47181 21.6852 6.5025 21.6882 6.67479 21.6882C6.84708 21.6882 6.87778 21.6852 6.97889 21.6579C7.46021 21.5282 7.79879 21.1363 7.85232 20.6469C7.89095 20.2936 7.75768 19.9397 7.49144 19.6885C7.33401 19.5401 7.13855 19.4373 6.92601 19.3912C6.82652 19.3697 6.59821 19.3612 6.50664 19.3757ZM8.30649 19.3756L8.28113 19.3858V21.162C8.28113 22.7712 8.28281 22.9388 8.29896 22.945C8.32218 22.954 8.63461 22.954 8.65784 22.945C8.67384 22.9388 8.67567 22.862 8.67567 22.1923C8.67567 21.7821 8.67947 21.4467 8.68412 21.4468C8.68878 21.447 8.72301 21.4703 8.76021 21.4987C8.84647 21.5645 9.02887 21.6539 9.13781 21.6838C9.74426 21.8502 10.3826 21.5182 10.5808 20.9333C10.6797 20.6412 10.6638 20.3346 10.5354 20.0574C10.4112 19.7894 10.1663 19.5568 9.89884 19.4529C9.62339 19.3459 9.2871 19.3461 9.01976 19.4536C8.91524 19.4956 8.81535 19.5534 8.74129 19.6146C8.71227 19.6386 8.68563 19.6582 8.6821 19.6582C8.67856 19.6582 8.67567 19.5969 8.67567 19.5221C8.67567 19.3864 8.67558 19.3859 8.64675 19.3749C8.6107 19.3612 8.34092 19.3617 8.30649 19.3756ZM12.0123 19.3763C11.972 19.3824 11.8901 19.4042 11.8302 19.4247C11.5432 19.523 11.3206 19.7222 11.1835 20.0034C11.0581 20.2605 11.0311 20.4939 11.0929 20.7871C11.1749 21.1761 11.4674 21.5024 11.853 21.6349C11.9947 21.6836 12.1446 21.6999 12.3843 21.6925C12.5428 21.6877 12.5895 21.6818 12.7 21.6529C12.8551 21.6123 12.9873 21.5526 13.1171 21.4643C13.2714 21.3592 13.2801 21.3352 13.2061 21.2191C13.0719 21.0083 13.0614 21.0002 12.9976 21.0568C12.7911 21.2403 12.4879 21.3328 12.2012 21.2998C12.0532 21.2828 11.9056 21.2334 11.8081 21.1683C11.6612 21.0703 11.5355 20.9037 11.4892 20.7455C11.4794 20.7117 11.4713 20.6824 11.4713 20.6805C11.4713 20.6785 11.8662 20.6769 12.349 20.6769H13.2267L13.2578 20.6523C13.3085 20.6123 13.3176 20.5733 13.3074 20.4392C13.2845 20.1357 13.166 19.8855 12.9449 19.6741C12.7981 19.5337 12.6458 19.4495 12.4434 19.3968C12.3406 19.3701 12.1215 19.3596 12.0123 19.3763ZM14.7157 19.3753C14.6004 19.3937 14.5109 19.4214 14.4058 19.4712C14.2721 19.5345 14.2134 19.5752 14.105 19.6801C13.9952 19.7863 13.9334 19.872 13.8672 20.0097C13.6763 20.4072 13.7219 20.8814 13.9849 21.2328C14.1264 21.4219 14.3363 21.5696 14.5675 21.6428C14.81 21.7196 15.2021 21.7143 15.4674 21.6307C15.6633 21.569 15.9031 21.4224 15.9351 21.3448C15.9475 21.3147 15.945 21.3055 15.9063 21.2405C15.8272 21.1075 15.766 21.0277 15.743 21.0277C15.731 21.0277 15.6896 21.0532 15.6511 21.0844C15.4458 21.2505 15.1535 21.332 14.8804 21.2993C14.6813 21.2754 14.5419 21.2169 14.4055 21.0998C14.3028 21.0118 14.1901 20.8292 14.1705 20.7193L14.1629 20.6769L15.035 20.6768C15.8794 20.6768 15.9081 20.6761 15.943 20.6547C15.9984 20.6208 16.0094 20.5683 15.993 20.4166C15.9711 20.2135 15.9143 20.0461 15.8146 19.8911C15.6078 19.5693 15.2822 19.3817 14.9094 19.3694C14.8381 19.367 14.7509 19.3697 14.7157 19.3753ZM12.3449 19.7843C12.3759 19.7908 12.449 19.8191 12.5073 19.8472C12.6503 19.9159 12.7641 20.0275 12.8339 20.1676L12.8818 20.2637L12.1973 20.2667C11.8208 20.2683 11.5108 20.2676 11.5084 20.2652C11.4993 20.256 11.5512 20.1384 11.5909 20.0784C11.7526 19.834 12.0432 19.7206 12.3449 19.7843ZM15.0503 19.7898C15.242 19.8365 15.4365 19.994 15.5271 20.176L15.5736 20.2694H14.8809H14.1883L14.2111 20.2112C14.2742 20.0504 14.3997 19.9136 14.5504 19.8409C14.7113 19.7634 14.8739 19.7468 15.0503 19.7898ZM6.87647 19.7937C7.01407 19.829 7.11162 19.8864 7.22264 19.9972C7.3766 20.1509 7.44712 20.3183 7.44679 20.5293C7.44659 20.6602 7.425 20.7583 7.37314 20.8639C7.27535 21.0629 7.09153 21.2126 6.87206 21.2719C6.77347 21.2986 6.57684 21.2987 6.47752 21.2722C6.20298 21.1988 5.99056 20.986 5.9204 20.7142C5.89776 20.6265 5.89756 20.4452 5.91999 20.3496C5.98141 20.088 6.20248 19.8643 6.46868 19.7942C6.58245 19.7643 6.76108 19.7641 6.87647 19.7937ZM9.5616 19.7836C9.84916 19.8237 10.0832 20.0143 10.1891 20.2946C10.2228 20.3837 10.2245 20.3962 10.2249 20.5524C10.2252 20.7098 10.2237 20.7203 10.1895 20.8101C10.1147 21.0061 9.9879 21.1484 9.80856 21.2376C9.66173 21.3106 9.58928 21.326 9.42529 21.3192C9.31024 21.3144 9.27584 21.3082 9.19515 21.2783C9.00452 21.2074 8.84935 21.0703 8.76562 20.8987C8.64931 20.6604 8.65251 20.4211 8.77517 20.1845C8.8285 20.0816 8.96922 19.9374 9.07198 19.8802C9.23523 19.7895 9.388 19.7593 9.5616 19.7836Z" fill="#FF5F00"/>
</svg>
